<svg aria-hidden="true" style="position: absolute; width: 0; height: 0; overflow: hidden;" version="1.1" xmlns="http://www.w3.org/2000/svg" xmlns:xlink="http://www.w3.org/1999/xlink">
    <defs>
        <symbol  id="icon-sorting" viewBox="0 0 32 32">
            <path d="M12 21L6.75 15.75L7.8075 14.6925L12 18.8775L16.1925 14.6925L17.25 15.75L12 21ZM12 3L17.25 8.25L16.1925 9.3075L12 5.1225L7.8075 9.3075L6.75 8.25L12 3Z" fill="#4A4A49"/>
        </symbol>

        <symbol  id="icon-profile" viewBox="0 0 32 32">
            <path  d="M12 23C5.37258 23 0 17.8513 0 11.5C0 5.14873 5.37258 0 12 0C18.6274 0 24 5.14873 24 11.5C24 17.8513 18.6274 23 12 23ZM19.5 18.5423C21.3558 16.7274 22.5 14.2418 22.5 11.5C22.5 5.94263 17.799 1.4375 12 1.4375C6.20101 1.4375 1.5 5.94263 1.5 11.5C1.5 14.2418 2.64422 16.7274 4.5 18.5423V17.9688C4.5 15.984 6.17893 14.375 8.25 14.375H15.75C17.8211 14.375 19.5 15.984 19.5 17.9688V18.5423ZM18 19.7589V17.9688C18 16.7779 16.9926 15.8125 15.75 15.8125H8.25C7.00736 15.8125 6 16.7779 6 17.9688V19.7589C7.70075 20.8958 9.76913 21.5625 12 21.5625C14.2309 21.5625 16.2992 20.8958 18 19.7589Z" fill="#4A4A49"/>
            <path  d="M7.5 8.625C7.5 11.0067 9.51472 12.9375 12 12.9375C14.4853 12.9375 16.5 11.0067 16.5 8.625C16.5 6.24327 14.4853 4.3125 12 4.3125C9.51472 4.3125 7.5 6.24327 7.5 8.625ZM15 8.625C15 10.2128 13.6569 11.5 12 11.5C10.3431 11.5 9 10.2128 9 8.625C9 7.03718 10.3431 5.75 12 5.75C13.6569 5.75 15 7.03718 15 8.625Z" fill="#4A4A49"/>
        </symbol>

        <symbol  id="icon-profile-filled" viewBox="0 0 32 32">
            <path  d="M12 1.5C6.20101 1.5 1.5 6.20101 1.5 12C1.5 17.799 6.20101 22.5 12 22.5C17.799 22.5 22.5 17.799 22.5 12C22.5 9.21523 21.3938 6.54451 19.4246 4.57538C17.4555 2.60625 14.7848 1.5 12 1.5ZM12 5.24999C13.864 5.24999 15.375 6.76104 15.375 8.625C15.375 10.489 13.864 12 12 12C10.136 12 8.62499 10.489 8.62499 8.625C8.623 7.72928 8.97794 6.86968 9.61131 6.23631C10.2447 5.60294 11.1043 5.248 12 5.24999ZM18 18.69C14.5928 21.7699 9.40715 21.7699 6 18.69V18.255C5.94089 16.1178 7.61352 14.3314 9.75 14.25H14.25C16.3757 14.3353 18.0425 16.1055 18 18.2325V18.69Z" fill="#4A4A49"/>
        </symbol>

        <symbol  id="icon-chevron-down" viewBox="0 0 32 32">
            <path  d="M12 15.3L6.75 10.05L7.8 9L12 13.2L16.2 9L17.25 10.05L12 15.3Z" fill="#4A4A49"/>
        </symbol>

        <symbol  id="icon-chevron-up" viewBox="0 0 32 32">
            <path  d="M11.8347 9L17.0124 14.25L15.9768 15.3L11.8347 11.1L7.69252 15.3L6.65698 14.25L11.8347 9Z" fill="#4A4A49"/>
        </symbol>

        <symbol  id="icon-delete" viewBox="0 0 32 32">
            <path  d="M7.5 7.5H8.75V15H7.5V7.5ZM11.25 7.5H12.5V15H11.25V7.5ZM2.5 3.75V5H3.75V17.5C3.75 18.1904 4.30964 18.75 5 18.75H15C15.6904 18.75 16.25 18.1904 16.25 17.5V5H17.5V3.75H2.5ZM5 17.5V5H15V17.5H5ZM7.5 1.25H12.5V2.5H7.5V1.25Z" fill="#4A4A49"/>
        </symbol>

        <symbol  id="icon-reset" viewBox="0 0 32 32">
            <path  d="M19.5 13.5C19.5 17.6421 16.1421 21 12 21C7.85786 21 4.5 17.6421 4.5 13.5C4.5 9.35786 7.85786 6 12 6H16.635L13.95 8.6925L15 9.75L19.5 5.25L15 0.75L13.95 1.8075L16.6425 4.5H12C7.02944 4.5 3 8.52944 3 13.5C3 18.4706 7.02944 22.5 12 22.5C16.9706 22.5 21 18.4706 21 13.5H19.5Z" fill="#4A4A49"/>
        </symbol>

        <symbol  id="icon-bell" viewBox="0 0 32 32">
            <path  d="M21.5265 15.225L19.5015 13.2V9.75C19.4966 5.89323 16.5865 2.6598 12.7515 2.25V0.75H11.2515V2.25C7.42987 2.68567 4.53363 5.90371 4.50154 9.75V13.2L2.47654 15.225C2.3284 15.3587 2.24618 15.5505 2.25154 15.75V18C2.23813 18.2027 2.31283 18.4014 2.45649 18.545C2.60015 18.6887 2.79881 18.7634 3.00154 18.75H8.25154C8.25154 20.8211 9.93047 22.5 12.0015 22.5C14.0726 22.5 15.7515 20.8211 15.7515 18.75H21.0015C21.2043 18.7634 21.4029 18.6887 21.5466 18.545C21.6903 18.4014 21.7649 18.2027 21.7515 18V15.75C21.7569 15.5505 21.6747 15.3587 21.5265 15.225ZM12.0015 21C10.7589 21 9.75154 19.9926 9.75154 18.75H14.2515C14.2515 19.9926 13.2442 21 12.0015 21ZM20.2515 17.25H3.75154V16.05L5.77654 14.025C5.92468 13.8913 6.0069 13.6995 6.00154 13.5V9.75C6.00154 6.43629 8.68783 3.75 12.0015 3.75C15.3152 3.75 18.0015 6.43629 18.0015 9.75V13.5C17.9962 13.6995 18.0784 13.8913 18.2265 14.025L20.2515 16.05V17.25Z" fill="#4A4A49"/>
        </symbol>

        <symbol  id="icon-bell-filled" viewBox="0 0 32 32">
            <path  d="M21.5265 15.225L19.5015 13.2V9.75C19.4966 5.89323 16.5865 2.6598 12.7515 2.25V0.75H11.2515V2.25C7.42987 2.68567 4.53363 5.90371 4.50154 9.75V13.2L2.47654 15.225C2.3284 15.3587 2.24618 15.5505 2.25154 15.75V18C2.23813 18.2027 2.31283 18.4014 2.45649 18.545C2.60015 18.6887 2.79881 18.7634 3.00154 18.75H8.25154C8.25154 20.8211 9.93047 22.5 12.0015 22.5C14.0726 22.5 15.7515 20.8211 15.7515 18.75H21.0015C21.2043 18.7634 21.4029 18.6887 21.5466 18.545C21.6903 18.4014 21.7649 18.2027 21.7515 18V15.75C21.7569 15.5505 21.6747 15.3587 21.5265 15.225ZM12.0015 21C10.7589 21 9.75154 19.9926 9.75154 18.75H14.2515C14.2515 19.9926 13.2442 21 12.0015 21Z" fill="#4A4A49"/>
        </symbol>

        <symbol  id="icon-check" viewBox="0 0 32 32">
            <path d="M16.59 7.58L10 14.17L6.41 10.59L5 12L10 17L18 9L16.59 7.58ZM12 2C6.48 2 2 6.48 2 12C2 17.52 6.48 22 12 22C17.52 22 22 17.52 22 12C22 6.48 17.52 2 12 2ZM12 20C7.58 20 4 16.42 4 12C4 7.58 7.58 4 12 4C16.42 4 20 7.58 20 12C20 16.42 16.42 20 12 20Z" fill="#4A4A49"/>
        </symbol>

        <symbol  id="icon-check-filled" viewBox="0 0 32 32">
            <path d="M12 2C6.48 2 2 6.48 2 12C2 17.52 6.48 22 12 22C17.52 22 22 17.52 22 12C22 6.48 17.52 2 12 2ZM10 17L5 12L6.41 10.59L10 14.17L17.59 6.58L19 8L10 17Z" fill="#4A4A49"/>
        </symbol>

        <symbol  id="icon-cross" viewBox="0 0 32 32">
            <path  d="M12 10.2225L18.2225 4L20 5.7775L13.7775 12L20 18.2225L18.2225 20L12 13.7775L5.7775 20L4 18.2225L10.2225 12L4 5.7775L5.7775 4L12 10.2225Z" fill="#4A4A49"/>
        </symbol>

        <symbol  id="icon-menu-burger" viewBox="0 0 32 32">
            <path  d="M3 3.77881H21V5.66811H3V3.77881ZM3 10.3914H21V12.2807H3V10.3914ZM3 17.0039H21V18.8932H3V17.0039Z" fill="#4A4A49"/>
        </symbol>

        <symbol  id="icon-warning" viewBox="0 0 32 32">
            <path  d="M12 1.5C6.20101 1.5 1.5 6.20101 1.5 12C1.5 17.799 6.20101 22.5 12 22.5C17.799 22.5 22.5 17.799 22.5 12C22.5 9.21523 21.3938 6.54451 19.4246 4.57538C17.4555 2.60625 14.7848 1.5 12 1.5ZM12 21C7.02944 21 3 16.9706 3 12C3 7.02944 7.02944 3 12 3C16.9706 3 21 7.02944 21 12C21 16.9706 16.9706 21 12 21ZM11.25 6H12.75V14.25H11.25V6ZM12 16.5C11.3787 16.5 10.875 17.0037 10.875 17.625C10.875 18.2463 11.3787 18.75 12 18.75C12.6213 18.75 13.125 18.2463 13.125 17.625C13.125 17.0037 12.6213 16.5 12 16.5Z" fill="#4A4A49"/>  
        </symbol>

        <symbol  id="icon-warning-filled" viewBox="0 0 32 32">
            <path  d="M12 1.5C6.225 1.5 1.5 6.225 1.5 12C1.5 17.775 6.225 22.5 12 22.5C17.775 22.5 22.5 17.775 22.5 12C22.5 6.225 17.775 1.5 12 1.5ZM11.175 6H12.825V14.25H11.175V6ZM12 18.75C11.4 18.75 10.875 18.225 10.875 17.625C10.875 17.025 11.4 16.5 12 16.5C12.6 16.5 13.125 17.025 13.125 17.625C13.125 18.225 12.6 18.75 12 18.75Z" fill="#4A4A49"/>    
        </symbol>

        <symbol  id="icon-add" viewBox="0 0 32 32">
            <path  d="M6.85714 6.85714V0H9.14286V6.85714H16V9.14286H9.14286V16H6.85714V9.14286H0V6.85714H6.85714Z" fill="#4A4A49"/>     
        </symbol>

        <symbol  id="icon-work" viewBox="0 0 32 32">
            <path  d="M23 17.9484H21V9.44653C21 8.92482 20.5523 8.50188 20 8.50188H17V10.3912H19V17.9484H15V3.77863C15 3.25692 14.5523 2.83398 14 2.83398H4C3.44772 2.83398 3 3.25692 3 3.77863V17.9484H1V19.8377H23V17.9484ZM5 17.9484V4.72328H13V17.9484H5ZM7 10.3912H11V12.2805H7V10.3912ZM11 6.61258H7V8.50188H11V6.61258Z" fill="#4A4A49"/>
        </symbol>

        <symbol  id="icon-work-filled" viewBox="0 0 32 32">
            <rect x="4" y="4" width="10" height="14" fill="#4A4A49"/>
            <path  d="M23 17.9484H21V9.44653C21 8.92482 20.5523 8.50188 20 8.50188H17V10.3912H19V17.9484H15V3.77863C15 3.25692 14.5523 2.83398 14 2.83398H4C3.44772 2.83398 3 3.25692 3 3.77863V17.9484H1V19.8377H23V17.9484ZM5 17.9484V4.72328H13V17.9484H5ZM7 10.3912H11V12.2805H7V10.3912ZM11 6.61258H7V8.50188H11V6.61258Z" fill="#4A4A49"/>
            <path d="M7 10.3916H11V12.2809H7V10.3916Z" fill="white"/>
            <path d="M7 6.6123H11V8.5016H7V6.6123Z" fill="white"/>
        </symbol>

        <symbol  id="icon-search" viewBox="0 0 32 32">
            <path fill-rule="evenodd" clip-rule="evenodd" d="M16.031 15.0164L20.314 19.2984L18.899 20.7134L14.617 16.4304C13.0237 17.7076 11.042 18.4023 9 18.3994C4.032 18.3994 0 14.3674 0 9.39941C0 4.43141 4.032 0.399414 9 0.399414C13.968 0.399414 18 4.43141 18 9.39941C18.0029 11.4414 17.3082 13.4232 16.031 15.0164ZM14.025 14.2744C15.2941 12.9693 16.0029 11.2198 16 9.39941C16 5.53141 12.867 2.39941 9 2.39941C5.132 2.39941 2 5.53141 2 9.39941C2 13.2664 5.132 16.3994 9 16.3994C10.8204 16.4023 12.5699 15.6935 13.875 14.4244L14.025 14.2744Z" fill="#4D4D4D"/>
        </symbol>

        <symbol  id="icon-close" viewBox="0 0 32 32">
            <path fill-rule="evenodd" clip-rule="evenodd" d="M8 6.62182L14.2225 0.399323L16 2.17682L9.7775 8.39932L16 14.6218L14.2225 16.3993L8 10.1768L1.7775 16.3993L0 14.6218L6.2225 8.39932L0 2.17682L1.7775 0.399323L8 6.62182Z" fill="#4A4A49"/>
        </symbol>

        <symbol  id="icon-logout" viewBox="0 0 32 32">
            <path fill-rule="evenodd" clip-rule="evenodd" d="M1.5 21.5H10.5C11.3281 21.4992 11.9992 20.8281 12 20V17.75H10.5V20H1.5V2H10.5V4.25H12V2C11.9992 1.17192 11.3281 0.500827 10.5 0.5H1.5C0.671916 0.500827 0.000826845 1.17192 0 2V20C0.000826845 20.8281 0.671916 21.4992 1.5 21.5ZM12.4395 14.4395L15.129 11.75H4.5V10.25H15.129L12.4395 7.5605L13.5 6.5L18 11L13.5 15.5L12.4395 14.4395Z" fill="white"/>
        </symbol>

        <symbol  id="icon-filter-3-line" viewBox="0 0 32 32">
            <path fill-rule="evenodd" clip-rule="evenodd" d="M7 12H11V10H7V12ZM0 0V2H18V0H0ZM3 7H15V5H3V7Z" fill="#205FFF"/>
        </symbol>

        <symbol  id="icon-eye-close" viewBox="0 0 32 32">
            <path fill-rule="evenodd" clip-rule="evenodd" d="M3.92968 16.8825L5.00218 15.8175C3.82784 14.7631 2.90516 13.4585 2.30218 12C3.82468 8.1975 8.02468 5.25 11.9997 5.25C13.0226 5.2635 14.0363 5.44596 14.9997 5.79L16.1622 4.62C14.8442 4.06299 13.4305 3.76751 11.9997 3.75C7.00311 3.9379 2.59766 7.08128 0.794681 11.745C0.735106 11.9098 0.735106 12.0902 0.794681 12.255C1.46087 14.0228 2.535 15.6083 3.92968 16.8825ZM8.99968 11.7975C9.10749 10.3119 10.289 9.13031 11.7747 9.0225L13.1322 7.6575C11.5842 7.24991 9.93626 7.69531 8.80438 8.8272C7.67249 9.95908 7.22709 11.607 7.63468 13.155L8.99968 11.7975ZM23.2047 11.745C22.3447 9.5049 20.8482 7.56527 18.8997 6.165L22.4997 2.5575L21.4422 1.5L1.49968 21.4425L2.55718 22.5L6.38218 18.675C8.08759 19.6755 10.0227 20.2181 11.9997 20.25C16.9963 20.0621 21.4017 16.9187 23.2047 12.255C23.2643 12.0902 23.2643 11.9098 23.2047 11.745ZM14.9997 12C14.9933 13.0686 14.4189 14.053 13.4919 14.5845C12.5649 15.116 11.4251 15.1143 10.4997 14.58L14.5797 10.5C14.8493 10.9543 14.9942 11.4717 14.9997 12ZM11.9997 18.75C10.4262 18.7225 8.8826 18.316 7.49968 17.565L9.40468 15.66C11.1929 16.9008 13.6129 16.6839 15.152 15.1448C16.6911 13.6057 16.908 11.1858 15.6672 9.3975L17.8197 7.245C19.5406 8.42624 20.8864 10.0766 21.6972 12C20.1747 15.8025 15.9747 18.75 11.9997 18.75Z" fill="#4A4A49"/>
        </symbol>

        <symbol  id="icon-eye-open" viewBox="0 0 32 32">
            <path fill-rule="evenodd" clip-rule="evenodd" d="M23.2047 11.745C21.4017 7.08128 16.9963 3.9379 11.9997 3.75C7.00311 3.9379 2.59766 7.08128 0.794681 11.745C0.735106 11.9098 0.735106 12.0902 0.794681 12.255C2.59766 16.9187 7.00311 20.0621 11.9997 20.25C16.9963 20.0621 21.4017 16.9187 23.2047 12.255C23.2643 12.0902 23.2643 11.9098 23.2047 11.745ZM11.9997 18.75C8.02468 18.75 3.82468 15.8025 2.30218 12C3.82468 8.1975 8.02468 5.25 11.9997 5.25C15.9747 5.25 20.1747 8.1975 21.6972 12C20.1747 15.8025 15.9747 18.75 11.9997 18.75ZM11.9997 7.5C9.5144 7.5 7.49968 9.51472 7.49968 12C7.49968 14.4853 9.5144 16.5 11.9997 16.5C14.485 16.5 16.4997 14.4853 16.4997 12C16.4997 9.51472 14.485 7.5 11.9997 7.5ZM11.9997 15C10.3428 15 8.99968 13.6569 8.99968 12C8.99968 10.3431 10.3428 9 11.9997 9C13.6565 9 14.9997 10.3431 14.9997 12C14.9997 12.7956 14.6836 13.5587 14.121 14.1213C13.5584 14.6839 12.7953 15 11.9997 15Z" fill="#205FFF"/>
        </symbol>

        <symbol  id="icon-add-filled" viewBox="0 0 32 32">
            <path fill-rule="evenodd" clip-rule="evenodd" d="M12 1.5C6.3 1.5 1.5 6.3 1.5 12C1.5 17.7 6.3 22.5 12 22.5C17.7 22.5 22.5 17.7 22.5 12C22.5 6.3 17.7 1.5 12 1.5ZM16.5 12.75H12.75V16.5H11.25V12.75H7.5V11.25H11.25V7.5H12.75V11.25H16.5V12.75Z" fill="#4A4A49"/>
        </symbol>

        <symbol  id="icon-add-outline" viewBox="0 0 32 32">
            <path fill-rule="evenodd" clip-rule="evenodd" d="M12 3C16.9706 3 21 7.02944 21 12C21 16.9706 16.9706 21 12 21C7.02944 21 3 16.9706 3 12C3 7.02944 7.02944 3 12 3ZM12 1.5C6.20101 1.5 1.5 6.20101 1.5 12C1.5 17.799 6.20101 22.5 12 22.5C17.799 22.5 22.5 17.799 22.5 12C22.5 6.20101 17.799 1.5 12 1.5ZM16.5 11.25H12.75V7.5H11.25V11.25H7.5V12.75H11.25V16.5H12.75V12.75H16.5V11.25Z" fill="#4A4A49"/>
        </symbol>

        <symbol  id="icon-checklist" viewBox="0 0 32 32">
            <path fill-rule="evenodd" clip-rule="evenodd" d="M10.125 15.6L4.8 10.275L3.75 11.325L9.075 16.65L10.125 17.7L20.7 7.125L19.65 6L10.125 15.6Z" fill="#4A4A49"/>
        </symbol>

        <symbol  id="icon-edit" viewBox="0 0 32 32">
            <path d="M0 15.2501V19.0001H3.75L14.81 7.94006L11.06 4.19006L0 15.2501ZM17.71 5.04006C18.1 4.65006 18.1 4.02006 17.71 3.63006L15.37 1.29006C14.98 0.900059 14.35 0.900059 13.96 1.29006L12.13 3.12006L15.88 6.87006L17.71 5.04006Z" fill="#205FFF"/>
        </symbol>

        <symbol  id="icon-dropdown-up" viewBox="0 0 24 24">
            <path d="M7 15L12 10L17 15H7Z" fill="#4A4A49"/>
        </symbol>

        <symbol  id="icon-dropdown-down" viewBox="0 0 24 24">
            <path d="M7 10L12 15L17 10H7Z" fill="#4A4A49"/>
        </symbol>

        <symbol  id="icon-upload" viewBox="0 0 25 16">
            <path d="M19.85 6.04C19.17 2.59 16.14 0 12.5 0C9.61 0 7.1 1.64 5.85 4.04C2.84 4.36 0.5 6.91 0.5 10C0.5 13.31 3.19 16 6.5 16H19.5C22.26 16 24.5 13.76 24.5 11C24.5 8.36 22.45 6.22 19.85 6.04ZM14.5 9V13H10.5V9H7.5L12.5 4L17.5 9H14.5Z" fill="#D8D8D8"/>
        </symbol>
        
        <symbol  id="icon-copy" viewBox="0 0 24 24">
            <path fill-rule="evenodd" clip-rule="evenodd" d="M17.5 6.25V17.5H6.25V6.25H17.5ZM17.5 5H6.25C5.55964 5 5 5.55964 5 6.25V17.5C5 18.1904 5.55964 18.75 6.25 18.75H17.5C18.1904 18.75 18.75 18.1904 18.75 17.5V6.25C18.75 5.55964 18.1904 5 17.5 5ZM2.5 11.25H1.25V2.5C1.25 1.80964 1.80964 1.25 2.5 1.25H11.25V2.5H2.5V11.25Z" fill="#205FFF"/>
        </symbol>

        <symbol  id="icon-calendar" viewBox="0 0 24 24">
            <path fill-rule="evenodd" clip-rule="evenodd" d="M19.5 3.75H16.5V2.25H15V3.75H9V2.25H7.5V3.75H4.5C3.67157 3.75 3 4.42157 3 5.25V20.25C3 21.0784 3.67157 21.75 4.5 21.75H19.5C20.3284 21.75 21 21.0784 21 20.25V5.25C21 4.42157 20.3284 3.75 19.5 3.75ZM19.5 20.25H4.5V9.75H19.5V20.25ZM19.5 8.25H4.5V5.25H7.5V6.75H9V5.25H15V6.75H16.5V5.25H19.5V8.25Z" fill="#121619"/>
        </symbol>

        <symbol  id="icon-download" viewBox="0 0 24 24">
            <path fill-rule="evenodd" clip-rule="evenodd" d="M16.25 9.375L15.3687 8.49375L10.625 13.2312V1.25H9.375V13.2312L4.63125 8.49375L3.75 9.375L10 15.625L16.25 9.375ZM16.25 15V17.5H3.75V15H2.5V17.5C2.5 18.1904 3.05964 18.75 3.75 18.75H16.25C16.9404 18.75 17.5 18.1904 17.5 17.5V15H16.25Z" fill="#205FFF"/>
        </symbol>

        <symbol  id="icon-image" viewBox="0 0 24 24">
            <path fill-rule="evenodd" clip-rule="evenodd" d="M1 0.679752H19C19.5523 0.679752 20 1.12747 20 1.67975V17.6798C20 18.232 19.5523 18.6798 19 18.6798H1C0.447715 18.6798 0 18.232 0 17.6798V1.67975C0 1.12747 0.447715 0.679752 1 0.679752ZM18 11.6798H14.584C13.7889 13.5029 11.989 14.6815 10 14.6815C8.01103 14.6815 6.21112 13.5029 5.416 11.6798H2V16.6798H18V11.6798ZM18 9.67975V2.67975H2V9.67975H7C7 11.3366 8.34315 12.6798 10 12.6798C11.6569 12.6798 13 11.3366 13 9.67975H18Z" fill="#4A4A49"/>
        </symbol>

        <symbol  id="icon-chevron-left" viewBox="0 0 24 24">
            <path fill-rule="evenodd" clip-rule="evenodd" d="M9.5 8L4.5 3L3.795 3.705L8.085 8L3.795 12.295L4.5 13L9.5 8ZM12.5 2V14H11.5V2H12.5Z" fill="#205FFF"/>
        </symbol>

        <symbol  id="icon-chevron-right" viewBox="0 0 24 24">
            <g id="icon-chevron-right" transform="translate(8.000000, 8.000000) rotate(-180.000000) translate(-8.000000, -8.000000) ">
                <rect id="Rectangle" fill="#FFFFFF" fill-rule="nonzero" style="mix-blend-mode: multiply;" transform="translate(8.000000, 8.000000) rotate(90.000000) translate(-8.000000, -8.000000) " x="0" y="0" width="16" height="16"></rect>
                <path d="M9.5,8 L4.5,3 L3.795,3.705 L8.085,8 L3.795,12.295 L4.5,13 L9.5,8 Z M12.5,2 L12.5,14 L11.5,14 L11.5,2 L12.5,2 Z" id="Shape" fill="#205FFF"></path>
            </g>
        </symbol>
    </defs>
</svg>
